HIERARCHY
ROOT Hips
{
	OFFSET -3.958830 18.904000 13.208200
	CHANNELS 6 Xposition Yposition Zposition Zrotation Yrotation Xrotation 
	JOINT LHipJoint
	{
		OFFSET 0.000000 0.000000 0.000000
		CHANNELS 3 Zrotation Yrotation Xrotation
		JOINT LeftUpLeg
		{
			OFFSET 1.800000 -1.400000 0.085000
			CHANNELS 3 Zrotation Yrotation Xrotation
			JOINT LeftLeg
			{
				OFFSET 2.215000 -6.000000 0.000000
				CHANNELS 3 Zrotation Yrotation Xrotation
				JOINT LeftFoot
				{
					OFFSET 2.500000 -6.900000 0.000000
					CHANNELS 3 Zrotation Yrotation Xrotation
					JOINT LeftToeBase
					{
						OFFSET 0.200000 -0.500000 1.950000
						CHANNELS 3 Zrotation Yrotation Xrotation
						End Site
						{
							OFFSET 0.000000 0.000000 0.000000
						}
					}
				}
			}
		}
	}
	JOINT RHipJoint
	{
		OFFSET 0.000000 0.000000 0.000000
		CHANNELS 3 Zrotation Yrotation Xrotation
		JOINT RightUpLeg
		{
			OFFSET -1.800000 -1.400000 0.085000
			CHANNELS 3 Zrotation Yrotation Xrotation
			JOINT RightLeg
			{
				OFFSET -2.215000 -6.000000 0.000000
				CHANNELS 3 Zrotation Yrotation Xrotation
				JOINT RightFoot
				{
					OFFSET -2.500000 -6.900000 0.000000
					CHANNELS 3 Zrotation Yrotation Xrotation
					JOINT RightToeBase
					{
						OFFSET -0.200000 -0.500000 1.950000
						CHANNELS 3 Zrotation Yrotation Xrotation
						End Site
						{
							OFFSET 0.000000 0.000000 0.000000
						}
					}
				}
			}
		}
	}
	JOINT LowerBack
	{
		OFFSET 0.000000 0.000000 0.000000
		CHANNELS 3 Zrotation Yrotation Xrotation
		JOINT Spine
		{
			OFFSET -0.087000 1.940000 -0.288900
			CHANNELS 3 Zrotation Yrotation Xrotation
			JOINT Spine1
			{
				OFFSET 0.000000 1.950000 0.060000
				CHANNELS 3 Zrotation Yrotation Xrotation
				JOINT Neck
				{
					OFFSET 0.000000 0.000000 0.000000
					CHANNELS 3 Zrotation Yrotation Xrotation
					JOINT Neck1
					{
						OFFSET 0.000000 1.600000 0.340000
						CHANNELS 3 Zrotation Yrotation Xrotation
						JOINT Head
						{
							OFFSET 0.000000 1.667000 -0.240000
							CHANNELS 3 Zrotation Yrotation Xrotation
							End Site
							{
								OFFSET 0.000000 0.000000 0.000000
							}
						}
					}
				}
				JOINT LeftShoulder
				{
					OFFSET 0.000000 0.000000 0.000000
					CHANNELS 3 Zrotation Yrotation Xrotation
					JOINT LeftArm
					{
						OFFSET 2.700000 1.550000 -0.730000
						CHANNELS 3 Zrotation Yrotation Xrotation
						JOINT LeftForeArm
						{
							OFFSET 5.450000 0.000000 0.000000
							CHANNELS 3 Zrotation Yrotation Xrotation
							JOINT LeftHand
							{
								OFFSET 3.450000 0.000000 0.000000
								CHANNELS 3 Zrotation Yrotation Xrotation
								JOINT LeftHandIndex1
								{
									OFFSET 0.750000 0.000000 0.000000
									CHANNELS 3 Zrotation Yrotation Xrotation
									End Site
									{
										OFFSET 0.000000 0.000000 0.000000
									}
								}
							}
						}
					}
				}
				JOINT RightShoulder
				{
					OFFSET 0.000000 0.000000 0.000000
					CHANNELS 3 Zrotation Yrotation Xrotation
					JOINT RightArm
					{
						OFFSET -2.700000 1.550000 -0.730000
						CHANNELS 3 Zrotation Yrotation Xrotation
						JOINT RightForeArm
						{
							OFFSET -5.450000 0.000000 0.000000
							CHANNELS 3 Zrotation Yrotation Xrotation
							JOINT RightHand
							{
								OFFSET -3.450000 0.000000 0.000000
								CHANNELS 3 Zrotation Yrotation Xrotation
								JOINT RightHandIndex1
								{
									OFFSET -0.750000 0.000000 0.000000
									CHANNELS 3 Zrotation Yrotation Xrotation
									End Site
									{
										OFFSET 0.000000 0.000000 0.000000
									}
								}
							}
						}
					}
				}
			}
		}
	}
}
MOTION
Frames: 10
Frame Time: 0.016667
-0.209390 15.340390 -5.576500 4.359877 3.775377 27.735315 -16.374710 6.502722 8.751861 50.915315 13.773193 -59.056679 -65.353494 31.101811 21.277430 1.937856 12.435091 0.255219 0.257450 0.181030 0.512560 18.678408 -3.749841 5.714701 -82.148316 -2.359265 -33.177633 75.873974 -12.194273 -0.725120 -1.702780 -7.998191 1.361660 -0.043830 -0.327040 0.495530 -2.474529 -2.679934 -12.082062 34.203042 -2.522060 35.000686 -3.902250 10.559334 -5.605634 9.917292 13.392007 -18.755505 30.438395 -17.433155 27.542841 -10.639350 3.384660 -12.749500 -26.892976 -14.999931 7.334036 -57.232324 18.143610 -17.974448 -36.135823 -19.358256 0.590959 -3.606359 3.111928 0.466660 -0.011530 0.568380 -0.022380 2.599873 17.464612 14.200015 29.441111 -13.521078 -10.509190 59.976127 48.647278 20.411141 2.247213 -1.877451 0.134150 -0.240500 -0.171400 -0.183840 
-0.197420 15.302290 -5.599310 4.383402 3.705047 27.767029 -16.404256 6.509847 8.802249 51.389086 14.296078 -59.054487 -67.289866 31.092861 20.387870 1.927793 12.402225 0.262157 0.245300 0.174970 0.522580 18.661248 -3.659958 5.708943 -82.878064 -2.576545 -33.397418 76.910589 -12.214996 -0.900663 -1.714875 -7.965565 1.370158 -0.040830 -0.344020 0.473640 -2.411958 -2.857894 -12.108553 35.241928 -3.291147 35.769617 -4.057237 10.418560 -5.221796 10.185822 13.232347 -19.107027 30.369278 -17.726836 27.808786 -11.670720 3.360470 -13.803420 -25.556625 -14.834350 7.319587 -57.384158 18.309124 -18.116174 -38.090329 -18.611021 0.424828 -3.621056 3.067522 0.488860 -0.023110 0.572580 -0.051600 0.625892 17.739637 14.627565 29.747851 -13.325754 -10.522938 64.568830 50.806100 23.564672 2.234922 -1.874030 0.116660 -0.213040 -0.150280 -0.206020 
-0.193840 15.228510 -5.628100 4.849530 3.640471 27.889265 -16.440201 6.505591 8.867120 52.224580 14.907542 -58.834434 -68.707754 30.756366 19.415315 1.904396 12.380746 0.274209 0.215250 0.140160 0.524210 18.638488 -3.597180 5.682587 -84.976649 -2.645101 -32.414278 77.862464 -11.355878 -1.956755 -1.696598 -7.865314 1.401541 -0.044100 -0.342720 0.445140 -2.330906 -2.991451 -12.130129 35.999506 -3.707598 36.307326 -3.042430 10.223306 -4.191380 10.139999 13.056667 -19.904442 31.296226 -19.206113 28.132893 -12.461810 2.365870 -13.247180 -23.056589 -14.483997 7.435915 -57.717443 18.742276 -18.404740 -41.597754 -16.943592 -0.070929 -3.658952 3.010187 0.499980 -0.021500 0.558320 -0.081470 -1.963046 18.026548 15.384797 29.609054 -13.402902 -10.298165 67.605993 53.195422 26.507829 2.214841 -1.868340 0.086190 -0.175970 -0.122460 -0.226170 
-0.183770 15.172770 -5.657190 5.208378 2.988550 27.344724 -16.467071 6.574195 8.893000 52.855186 15.111502 -57.764145 -70.393329 30.404715 18.414185 1.911699 12.348047 0.297442 0.189690 0.095160 0.522820 18.610445 -3.554396 5.667478 -86.328248 -2.690705 -32.097196 78.437647 -11.242335 -2.086936 -1.688425 -7.837420 1.419377 -0.066720 -0.345570 0.413490 -2.278901 -3.206247 -12.141545 37.457457 -5.072771 37.420850 -3.173175 9.555273 -2.629180 10.475424 12.555830 -20.911973 31.538173 -20.545088 31.232845 -13.353880 0.731380 -11.589530 -21.197062 -14.693636 7.813524 -57.537154 19.101798 -18.623597 -45.760412 -18.460826 0.777184 -3.638719 2.992038 0.507120 -0.036060 0.540510 -0.103560 -4.477536 18.970201 16.307249 29.056990 -12.934750 -9.990940 75.231749 57.198405 33.078512 2.260994 -1.840566 0.072170 -0.142710 -0.097100 -0.234340 
-0.170210 15.113520 -5.684140 5.703500 2.566183 27.384880 -16.476884 6.574783 8.951753 53.519927 15.500541 -57.113334 -72.676996 29.895536 16.976042 1.942238 12.286685 0.333251 0.138340 0.022380 0.509480 18.603325 -3.537571 5.650851 -88.085720 -2.899672 -31.651203 79.173224 -10.876951 -2.567379 -1.666735 -7.779319 1.446457 -0.112520 -0.345680 0.387880 -2.274226 -3.278043 -12.163352 38.803460 -6.412059 37.984762 -3.980679 8.810574 -1.282806 10.847737 12.069396 -22.105215 32.002656 -20.820128 33.707576 -14.565280 0.477240 -9.716770 -18.902213 -14.729957 8.212126 -57.527137 19.820716 -18.922202 -48.185446 -19.893422 1.656257 -3.613724 2.972594 0.508800 -0.044340 0.521580 -0.129350 -7.602723 19.741086 17.536341 31.661182 -12.735623 -10.625063 89.851746 62.400639 45.406055 2.477082 -1.642412 0.057180 -0.130030 -0.067990 -0.240650 
-0.163460 15.045700 -5.718270 6.141224 2.299496 27.434957 -16.453531 6.495953 9.017349 54.214393 16.017760 -56.680509 -74.886224 29.523618 15.663589 1.980578 12.230368 0.368937 0.074470 -0.073720 0.504560 18.629495 -3.579975 5.642298 -90.061622 -3.367619 -31.261988 80.504718 -10.495757 -3.176715 -1.644070 -7.702198 1.483010 -0.176390 -0.352530 0.361620 -2.357398 -3.114797 -12.185159 40.208019 -7.332408 37.987777 -4.986479 8.432547 0.013275 10.889057 11.626820 -23.604294 33.321278 -21.375750 36.069537 -16.035380 0.770820 -7.159840 -16.195794 -15.125392 8.688392 -57.464377 20.318568 -19.072894 -50.049212 -20.717648 2.364012 -3.584353 2.944021 0.515760 -0.053200 0.505670 -0.160930 -10.530530 20.844859 19.019485 37.068885 -13.529437 -13.325630 108.437371 64.184275 61.710229 2.653132 -1.268437 0.039030 -0.126560 -0.040480 -0.253910 
-0.163190 14.991000 -5.747510 6.546876 2.333500 26.933135 -16.467434 6.565270 9.050506 54.344735 16.322188 -56.523788 -76.051346 29.822579 15.504008 1.992039 12.247197 0.374112 0.010420 -0.165310 0.486490 18.613993 -3.566363 5.590833 -91.808465 -3.327794 -30.599577 82.055830 -10.539809 -3.507431 -1.636622 -7.650983 1.513650 -0.230930 -0.354050 0.333190 -2.320654 -3.311651 -12.186523 41.857235 -8.266607 38.617902 -5.500142 8.442821 0.775268 10.854421 11.276223 -24.607446 32.842678 -21.586612 38.965059 -17.736480 0.593180 -5.874970 -14.434105 -15.772571 9.030421 -57.439116 20.538733 -18.992772 -50.546392 -20.562322 2.449307 -3.556416 2.882103 0.548800 -0.072360 0.501960 -0.182600 -12.167460 21.813473 20.181609 38.842385 -15.780192 -15.641838 124.515427 63.334930 78.986788 2.442323 -1.216407 0.005320 -0.098190 -0.005780 -0.263780 
-0.158990 14.958290 -5.767240 6.922948 2.307618 26.158298 -16.480927 6.694378 9.049425 53.938909 16.282955 -56.703717 -76.062263 30.608681 16.216981 2.011398 12.306102 0.377965 -0.010860 -0.231800 0.479900 18.590268 -3.565977 5.534956 -92.975534 -3.415504 -30.290318 83.157181 -11.461766 -3.158450 -1.638329 -7.698649 1.518454 -0.267910 -0.353640 0.305340 -2.275758 -3.611272 -12.178833 43.080573 -9.297209 38.588338 -5.027936 7.785315 1.886432 10.830318 10.742782 -25.411483 30.897389 -21.738507 44.355622 -18.287390 -0.971670 -2.726430 -13.298728 -17.707231 10.079994 -59.357436 20.314947 -19.464486 -50.136153 -21.926051 2.905493 -3.491201 2.853813 0.574260 -0.096210 0.485190 -0.179410 -12.827669 23.389025 20.487655 35.356847 -17.450751 -16.215713 133.012645 63.728543 91.242813 2.263471 -1.262523 -0.015590 -0.085660 -0.005220 -0.262540 
-0.151040 14.935290 -5.778820 7.359742 1.965834 26.210357 -16.472694 6.699872 9.064175 53.873682 16.339123 -56.556353 -76.848863 30.470582 15.694782 1.998800 12.261259 0.389372 -0.016380 -0.258380 0.489510 18.594010 -3.597558 5.514164 -94.147876 -4.261202 -30.897168 83.740450 -12.516747 -2.569400 -1.646183 -7.754395 1.506572 -0.276310 -0.380020 0.264210 -2.308255 -3.631769 -12.176182 43.630432 -9.735128 38.039180 -4.761495 7.379823 2.834663 10.660665 10.310462 -26.305896 29.973957 -22.399362 48.486529 -18.484580 -2.359360 -0.927180 -11.678143 -19.157369 10.602653 -61.569200 19.114509 -19.664739 -48.380417 -22.593192 3.044717 -3.424531 2.816139 0.608350 -0.132510 0.484970 -0.189420 -13.811886 24.721437 21.195380 34.203596 -18.296148 -16.076180 139.529028 62.270300 98.075865 2.154728 -1.404284 -0.039690 -0.071820 -0.012890 -0.271960 
-0.153050 14.907460 -5.779040 7.579017 1.263132 26.504004 -16.438650 6.570775 9.088863 54.628117 16.459561 -55.430092 -78.645683 29.332183 13.931581 1.963233 12.129006 0.402459 0.006030 -0.249660 0.536140 18.629917 -3.654238 5.546866 -94.861414 -4.925521 -30.984304 84.160899 -11.983415 -2.964087 -1.650821 -7.663010 1.516424 -0.270330 -0.437560 0.238660 -2.432327 -3.341695 -12.166833 43.733950 -10.075444 37.296658 -5.152419 6.771125 4.101279 10.498993 9.897529 -27.309469 31.100775 -23.831138 51.671839 -18.798750 -2.984340 -0.450410 -10.164751 -19.714278 11.038918 -63.629122 18.833296 -20.485082 -47.537896 -25.681198 4.322335 -3.342300 2.809104 0.653290 -0.179280 0.509800 -0.217640 -14.845956 25.415173 22.099239 35.423456 -17.209979 -15.255800 144.074603 59.231545 99.613181 2.149054 -1.509934 -0.044900 -0.068350 -0.018600 -0.299150 
